<?xml version="1.0" standalone="no"?>
<!DOCTYPE svg PUBLIC "-//W3C//DTD SVG 20010904//EN"
 "http://www.w3.org/TR/2001/REC-SVG-20010904/DTD/svg10.dtd">
<svg version="1.0" xmlns="http://www.w3.org/2000/svg"
 width="300.000000pt" height="300.000000pt" viewBox="0 0 300.000000 300.000000"
 preserveAspectRatio="xMidYMid meet">
<metadata>
Created by potrace 1.11, written by Peter Selinger 2001-2013
</metadata>
<g transform="translate(0.000000,300.000000) scale(0.100000,-0.100000)"
fill="#000000" stroke="none">
<path d="M1147 2448 c-47 -145 -120 -371 -162 -503 -42 -132 -80 -251 -85
-265 -5 -14 -43 -133 -85 -265 -42 -132 -82 -258 -90 -280 -7 -22 -42 -128
-76 -235 -34 -107 -63 -198 -66 -202 -2 -5 83 -8 190 -8 l195 0 6 28 c3 15 41
142 84 282 l79 255 322 0 323 0 37 -115 c21 -63 40 -122 43 -130 6 -16 82
-260 93 -297 6 -23 8 -23 207 -23 156 0 199 3 195 13 -5 13 -87 263 -192 587
-35 107 -125 384 -200 615 -75 231 -159 490 -187 575 -27 85 -55 171 -63 190
l-13 35 -235 3 -235 2 -85 -262z m347 -183 c38 -142 90 -314 159 -525 l63
-195 -254 -3 c-140 -1 -257 -1 -259 1 -2 2 10 44 25 93 82 252 145 464 177
599 20 83 39 157 42 165 6 17 9 8 47 -135z"/>
<path d="M0 295 l0 -95 1500 0 1500 0 0 95 0 95 -1500 0 -1500 0 0 -95z"/>
</g>
</svg>
